<?xml version="1.0" standalone="no"?>
<!DOCTYPE svg PUBLIC "-//W3C//DTD SVG 20010904//EN"
 "http://www.w3.org/TR/2001/REC-SVG-20010904/DTD/svg10.dtd">
<svg version="1.0" xmlns="http://www.w3.org/2000/svg"
 width="768.000000pt" height="768.000000pt" viewBox="0 0 768.000000 768.000000"
 preserveAspectRatio="xMidYMid meet">
<metadata>
Created by potrace 1.11, written by Peter Selinger 2001-2013
</metadata>
<g transform="translate(0.000000,768.000000) scale(0.100000,-0.100000)"
fill="#000000" stroke="none">
<path d="M3570 6654 c0 -9 -8 -23 -18 -32 -10 -10 -11 -12 -2 -7 13 9 13 8 1
-7 -7 -10 -20 -18 -28 -18 -9 0 -13 -6 -9 -15 3 -9 -3 -19 -14 -25 -11 -6 -19
-16 -17 -23 1 -7 -4 -11 -11 -9 -8 1 -11 -2 -8 -7 3 -5 3 -17 0 -26 -5 -13 -8
-14 -15 -3 -7 10 -9 11 -9 0 0 -7 -4 -11 -8 -8 -5 3 -9 -1 -9 -9 0 -8 5 -11
10 -8 6 3 7 1 3 -5 -4 -7 -14 -12 -23 -12 -10 0 -14 -6 -10 -20 3 -11 1 -18
-4 -14 -5 3 -9 -4 -9 -15 0 -12 -5 -21 -11 -21 -5 0 -7 -4 -4 -10 3 -5 1 -10
-6 -10 -7 0 -9 -3 -6 -7 4 -3 -1 -12 -11 -20 -9 -8 -11 -12 -4 -8 6 3 12 1 12
-4 0 -6 -4 -11 -10 -11 -5 0 -10 -8 -10 -17 0 -9 -7 -25 -17 -35 -13 -14 -13
-18 -2 -18 8 -1 3 -7 -11 -15 -15 -9 -19 -15 -10 -15 12 0 11 -4 -4 -15 -13
-10 -15 -15 -6 -15 9 0 8 -5 -6 -16 -10 -8 -12 -12 -4 -8 12 6 12 4 -1 -12 -9
-10 -14 -25 -12 -31 3 -7 -2 -16 -11 -19 -8 -3 -12 -12 -9 -20 3 -8 0 -14 -7
-14 -9 0 -9 -4 1 -17 8 -9 9 -14 4 -11 -6 4 -15 -5 -22 -18 -6 -13 -7 -22 -2
-18 14 8 10 -3 -7 -20 -12 -12 -12 -16 -2 -16 10 0 9 -3 -2 -10 -8 -5 -16 -18
-17 -30 -2 -11 -5 -30 -7 -42 -2 -13 -4 -27 -5 -31 0 -5 -7 -5 -13 -1 -9 5 -9
2 1 -9 7 -9 9 -17 4 -17 -6 0 -9 -11 -8 -25 2 -14 -1 -28 -7 -31 -6 -4 -5 -10
3 -15 11 -7 11 -9 1 -9 -7 0 -11 -4 -7 -9 3 -6 -3 -15 -12 -21 -17 -11 -17
-11 1 -6 14 5 17 3 11 -11 -8 -20 -8 -23 -2 -76 4 -28 2 -37 -7 -34 -7 3 -13
-1 -13 -9 0 -7 4 -11 9 -8 4 3 8 2 9 -3 0 -4 2 -18 3 -30 2 -15 -2 -19 -13
-15 -14 5 -14 3 -3 -10 18 -22 24 -91 8 -85 -7 3 -13 -1 -13 -9 0 -7 4 -11 9
-8 4 3 8 2 9 -3 0 -4 2 -18 3 -30 2 -14 -2 -19 -11 -16 -10 4 -10 -1 2 -23 9
-18 11 -32 5 -39 -6 -7 -5 -16 2 -23 9 -9 8 -12 -6 -12 -9 0 -14 -5 -11 -10 4
-6 11 -7 17 -4 6 4 8 3 5 -3 -15 -23 -6 -146 12 -167 10 -11 10 -16 2 -16 -9
0 -9 -5 -1 -21 7 -11 9 -27 6 -34 -2 -7 1 -18 8 -24 7 -6 12 -21 11 -33 -1
-13 2 -26 6 -29 5 -3 10 -17 11 -32 1 -15 7 -27 12 -27 5 0 6 -3 3 -7 -4 -3 3
-21 14 -40 12 -19 16 -33 9 -33 -6 0 -8 -5 -5 -10 4 -6 10 -8 14 -6 4 3 8 -7
9 -21 1 -14 10 -32 19 -39 10 -7 15 -16 11 -19 -4 -4 0 -14 8 -22 8 -8 11 -19
8 -25 -4 -7 -2 -8 4 -4 7 4 12 1 12 -9 0 -10 5 -13 12 -9 8 5 9 0 5 -15 -4
-17 -2 -21 9 -17 9 3 12 1 9 -4 -3 -6 1 -13 9 -16 9 -3 13 -10 11 -15 -3 -5 3
-16 15 -26 11 -10 20 -23 20 -31 0 -7 7 -15 15 -18 8 -4 15 -14 15 -23 0 -14
2 -14 11 -1 9 12 10 11 6 -7 -3 -12 -2 -22 2 -21 22 2 32 -4 27 -18 -3 -8 -2
-13 2 -11 9 6 33 -19 25 -27 -4 -3 1 -6 11 -6 9 0 20 -8 23 -17 8 -20 43 -56
44 -45 0 4 4 -3 10 -16 5 -15 13 -21 21 -16 7 4 10 4 6 0 -4 -5 7 -21 23 -37
16 -15 29 -31 29 -35 0 -3 10 -15 23 -26 12 -11 15 -17 7 -13 -8 3 -5 -2 8
-11 12 -9 22 -22 22 -30 0 -7 9 -19 21 -27 15 -11 17 -16 7 -20 -8 -4 -7 -6 5
-6 10 -1 15 -5 12 -11 -3 -5 -1 -10 5 -10 7 0 9 -7 6 -15 -3 -9 1 -18 9 -21 8
-4 15 -14 15 -24 0 -10 6 -22 13 -28 7 -6 14 -25 15 -43 l3 -33 -21 24 c-11
13 -19 28 -17 34 2 6 -8 17 -22 24 -14 7 -17 10 -7 7 16 -5 14 0 -8 20 -15 14
-24 30 -20 37 4 7 3 8 -4 4 -8 -5 -12 1 -12 16 0 18 -2 20 -10 8 -9 -13 -10
-13 -11 0 -1 8 -1 18 0 22 0 4 -8 5 -19 3 -12 -2 -17 1 -14 9 3 8 -2 16 -10
19 -9 4 -16 11 -16 17 0 15 -26 41 -34 33 -3 -4 -6 -1 -6 6 0 19 -48 62 -53
48 -3 -7 -6 -4 -6 6 -1 9 -6 17 -12 17 -5 0 -8 4 -4 9 3 6 -4 8 -15 6 -11 -2
-19 -1 -16 3 2 4 -2 13 -10 20 -8 7 -14 10 -14 7 0 -4 -7 1 -16 9 -8 9 -22 16
-30 16 -8 0 -13 4 -9 9 3 6 -4 8 -15 6 -11 -2 -20 1 -20 6 0 6 -5 7 -12 3 -6
-4 -8 -3 -5 3 8 12 -27 46 -36 36 -4 -3 -16 2 -26 11 -11 10 -25 15 -32 10 -8
-4 -10 -3 -5 4 5 8 -1 12 -14 12 -12 0 -18 5 -15 10 3 6 -1 10 -10 10 -10 0
-13 5 -9 13 5 7 0 6 -11 -3 -11 -9 -16 -10 -11 -2 4 7 1 12 -9 12 -9 0 -23 7
-32 15 -8 8 -19 13 -24 10 -5 -4 -9 -1 -9 4 0 6 -9 11 -21 11 -11 0 -17 5 -14
10 3 6 -3 10 -14 10 -12 0 -21 4 -21 9 0 5 -11 8 -25 6 -14 -1 -28 2 -32 8 -4
6 -1 7 7 2 9 -5 11 -4 6 3 -4 7 -16 12 -27 12 -11 0 -18 4 -15 9 3 5 0 9 -7 8
-34 -1 -48 4 -41 15 5 8 2 9 -9 5 -9 -3 -19 -2 -22 4 -4 5 -11 7 -16 4 -5 -4
-9 -1 -9 5 0 6 -4 9 -9 5 -6 -3 -14 3 -20 12 -8 14 -10 15 -11 3 0 -11 -2 -12
-8 -3 -5 7 -20 14 -35 15 -15 1 -27 6 -27 10 0 4 -9 8 -20 8 -11 0 -20 5 -20
11 0 5 -4 7 -10 4 -5 -3 -10 0 -10 7 0 10 -3 9 -10 -2 -8 -12 -10 -12 -15 2
-4 11 -15 15 -30 12 -13 -2 -27 1 -31 7 -5 8 -3 9 6 4 8 -5 11 -4 7 3 -4 5
-17 8 -29 4 -16 -4 -19 -2 -13 9 7 12 6 12 -7 1 -13 -10 -18 -10 -24 -1 -5 8
-3 9 6 4 8 -5 11 -4 7 2 -4 6 -20 9 -36 7 -21 -2 -33 2 -40 14 -8 12 -10 13
-11 3 0 -12 -3 -12 -17 1 -10 8 -30 13 -45 12 -16 -2 -28 2 -28 8 0 6 -7 5
-17 -3 -11 -10 -14 -10 -9 -1 4 7 1 12 -8 12 -9 0 -16 6 -16 13 0 8 -4 7 -10
-3 -7 -10 -12 -12 -17 -4 -5 6 -16 10 -25 8 -10 -1 -18 3 -18 9 0 7 -5 5 -10
-3 -5 -8 -10 -10 -10 -5 0 6 -10 11 -23 12 -34 3 -51 8 -66 17 -10 6 -12 5 -7
-2 5 -8 2 -10 -8 -6 -9 3 -14 10 -11 14 6 10 -15 8 -32 -3 -6 -4 -14 -1 -16 5
-4 10 -7 10 -15 0 -7 -11 -11 -10 -16 4 -6 16 -8 16 -16 4 -6 -9 -10 -10 -10
-3 0 6 -9 9 -22 5 -12 -3 -19 -1 -15 5 7 11 -29 11 -39 0 -13 -13 -26 -7 -20
9 4 10 2 13 -6 8 -16 -10 -50 -10 -66 0 -6 4 -12 4 -12 -1 0 -4 -20 -7 -45 -5
-31 3 -43 8 -38 16 4 6 -1 5 -10 -3 -13 -10 -20 -11 -31 -2 -11 9 -16 9 -21 0
-6 -8 -10 -7 -16 2 -5 8 -9 10 -9 4 0 -5 -16 -11 -35 -11 -23 -1 -32 2 -28 10
3 6 0 5 -8 -1 -16 -16 -33 -17 -23 -1 5 7 3 8 -7 2 -23 -14 -51 -16 -43 -2 5
7 3 8 -7 2 -8 -5 -25 -10 -37 -12 -17 -2 -22 1 -16 10 6 10 4 10 -9 0 -9 -8
-21 -11 -27 -7 -5 3 -10 -1 -10 -10 0 -9 -5 -13 -10 -10 -6 4 -8 10 -6 14 3 3
-4 7 -14 7 -10 0 -17 -3 -14 -7 2 -4 -3 -10 -12 -13 -8 -3 -12 -2 -9 3 6 11
-41 8 -51 -2 -4 -3 -15 -2 -25 4 -13 7 -19 6 -19 -1 0 -12 -59 -8 -81 5 -12 8
-12 6 -1 -8 12 -14 11 -15 -13 -11 -18 3 -24 1 -20 -7 4 -6 -5 -3 -19 6 -15
10 -26 14 -25 9 4 -21 -2 -26 -16 -14 -12 10 -15 10 -15 0 0 -9 -3 -10 -13 -1
-10 7 -17 7 -24 0 -12 -12 -74 -19 -68 -9 2 4 -2 7 -10 7 -8 0 -12 -4 -9 -9 3
-4 -2 -8 -11 -8 -10 0 -14 5 -10 13 4 6 -1 3 -9 -7 -9 -11 -16 -15 -16 -10 0
6 -10 10 -23 8 -12 -1 -22 -3 -22 -4 0 -1 -10 -3 -22 -6 -14 -2 -23 1 -23 8 0
6 -7 3 -15 -8 -8 -10 -15 -14 -15 -8 0 6 -7 11 -15 11 -8 0 -12 -4 -9 -9 3 -5
-6 -7 -20 -4 -14 3 -28 0 -32 -5 -4 -6 -11 -6 -20 2 -11 9 -14 9 -14 -1 0 -9
-4 -9 -17 1 -9 8 -14 9 -10 3 5 -8 -4 -12 -27 -12 -19 0 -40 -3 -47 -8 -7 -4
-36 -6 -65 -5 -29 1 -55 -2 -59 -8 -3 -6 -11 -8 -17 -5 -6 4 -25 8 -41 10 -20
1 -25 -1 -16 -7 9 -6 2 -8 -21 -6 -19 2 -41 -1 -48 -6 -8 -6 -17 -5 -26 2 -11
9 -16 9 -22 0 -5 -8 -3 -9 6 -4 9 6 11 4 5 -4 -4 -7 -18 -11 -31 -8 -15 3 -28
-1 -33 -11 -6 -11 -10 -11 -16 -3 -5 9 -13 7 -28 -6 -14 -12 -18 -13 -12 -3 5
9 -1 7 -15 -5 -13 -11 -20 -14 -15 -6 6 11 2 10 -15 -2 -18 -12 -27 -14 -37
-5 -7 6 -13 9 -14 7 -7 -32 -3 -50 13 -55 10 -3 16 -10 13 -15 -4 -5 1 -9 9
-9 9 0 16 -4 16 -10 0 -5 7 -10 16 -10 9 0 12 -5 8 -12 -5 -8 0 -7 11 2 11 9
16 10 11 3 -4 -8 -2 -13 4 -13 6 0 8 -6 4 -12 -5 -10 -4 -10 6 -1 11 10 17 8
30 -7 10 -11 29 -21 43 -22 14 -1 23 -6 21 -10 -3 -4 4 -8 16 -8 12 0 28 -7
37 -15 8 -9 28 -19 44 -22 16 -3 29 -10 29 -15 0 -5 -5 -6 -12 -2 -6 4 -8 3
-5 -3 4 -6 18 -8 32 -5 15 2 25 0 25 -7 0 -6 17 -11 41 -11 29 0 38 -3 33 -12
-5 -8 0 -7 11 2 10 8 16 10 12 3 -5 -7 -1 -12 10 -12 10 0 32 -2 48 -6 17 -3
37 -6 45 -7 8 0 18 -6 22 -12 5 -7 8 -7 8 2 0 10 4 10 16 -2 11 -12 20 -13 34
-6 13 7 21 6 29 -4 7 -8 22 -11 38 -8 17 3 24 1 19 -6 -4 -6 1 -8 13 -5 10 3
29 -1 41 -7 17 -9 21 -9 15 0 -5 7 3 6 21 -3 18 -9 37 -12 50 -7 11 5 27 4 35
0 8 -5 19 -4 26 2 9 7 13 7 13 -2 0 -10 3 -10 15 0 12 10 15 10 15 0 0 -10 3
-10 14 -1 9 7 17 8 20 2 7 -10 25 -9 44 2 8 6 12 2 13 -10 0 -11 3 -13 6 -5 4
10 8 10 19 1 11 -9 14 -9 14 0 0 7 5 9 13 4 16 -10 38 -13 33 -4 -3 4 14 7 37
7 23 0 36 -1 30 -3 -7 -3 -13 -9 -13 -14 0 -5 12 -4 26 1 21 8 29 7 39 -6 11
-16 13 -16 23 2 10 16 11 16 12 2 0 -11 6 -15 19 -11 10 3 22 0 25 -6 4 -5 13
-8 21 -5 8 4 13 9 11 13 -3 4 10 6 27 4 18 -2 38 -4 45 -5 6 -1 12 -5 12 -10
0 -5 6 -6 13 -1 20 12 40 13 56 0 12 -10 13 -9 6 3 -8 13 -7 13 8 1 13 -10 17
-10 17 -1 0 9 3 10 13 1 10 -8 17 -7 27 2 10 10 12 9 7 -5 -7 -20 8 -25 17 -5
5 9 7 9 12 -1 3 -6 11 -9 17 -5 18 11 38 12 31 2 -3 -5 2 -9 10 -9 9 0 16 6
16 13 0 8 3 8 9 -2 5 -8 18 -12 30 -8 13 3 25 -1 31 -11 5 -10 10 -12 10 -5 0
11 8 11 50 1 8 -1 21 -10 27 -18 11 -13 12 -12 6 5 -6 17 -4 18 9 8 8 -7 18
-10 21 -6 4 3 13 0 21 -7 9 -6 21 -10 28 -7 7 2 23 0 35 -4 14 -5 23 -4 27 4
2 7 5 5 5 -4 1 -12 9 -15 28 -13 15 1 33 -2 40 -8 7 -6 19 -8 28 -5 8 4 17 2
20 -4 4 -5 11 -7 16 -4 5 4 9 2 9 -3 0 -6 9 -8 20 -5 11 3 20 1 20 -5 0 -6 9
-8 20 -5 12 3 20 0 20 -6 0 -7 5 -9 10 -6 6 3 10 0 10 -7 0 -9 3 -9 10 2 5 8
10 10 10 4 0 -11 3 -12 51 -17 14 -2 44 -13 67 -24 30 -15 44 -17 53 -9 9 8
10 8 5 -1 -4 -8 -1 -13 8 -13 9 0 16 -6 16 -12 0 -9 4 -8 10 2 6 10 10 11 10
3 0 -7 9 -13 21 -13 11 0 18 -4 15 -9 -3 -4 6 -7 19 -5 14 1 25 -2 25 -7 0 -6
5 -7 10 -4 6 3 10 1 10 -6 0 -8 5 -8 18 2 9 7 14 9 10 5 -4 -5 0 -15 10 -22
22 -17 35 -18 27 -1 -4 6 2 2 13 -10 11 -13 30 -23 41 -23 12 0 21 -5 21 -11
0 -5 4 -8 9 -4 5 3 16 -1 24 -9 8 -8 17 -12 21 -9 3 4 6 0 6 -8 0 -11 2 -11
10 1 8 12 10 12 10 -5 0 -17 2 -17 10 -5 6 10 10 11 10 3 0 -7 6 -13 14 -13 7
0 19 -7 26 -15 7 -8 16 -12 21 -9 5 3 12 -3 16 -12 6 -16 7 -16 14 2 7 17 8
17 8 -4 1 -13 5 -21 10 -17 5 3 15 -1 23 -8 7 -8 19 -12 27 -9 8 3 11 0 7 -7
-5 -7 1 -11 14 -11 14 0 19 -4 14 -12 -6 -9 -3 -9 9 0 14 12 16 11 12 -7 -3
-18 -1 -20 16 -11 14 8 19 8 17 0 -2 -7 8 -19 22 -28 17 -12 22 -13 16 -3 -6
10 -5 12 2 7 7 -4 12 -14 12 -22 0 -8 5 -12 10 -9 6 3 10 1 10 -5 0 -7 6 -10
12 -8 16 6 41 -19 34 -31 -3 -5 2 -7 12 -4 12 3 22 -3 29 -19 7 -13 12 -17 12
-9 1 7 13 -1 28 -18 15 -17 33 -31 41 -31 7 0 10 -4 7 -10 -3 -6 1 -7 9 -4 11
4 16 0 16 -12 0 -9 2 -15 6 -12 8 8 80 -63 76 -75 -2 -6 5 -4 14 4 10 8 15 9
11 2 -4 -7 5 -20 23 -33 16 -12 30 -30 30 -40 0 -13 6 -17 23 -14 12 2 16 2
10 -2 -7 -3 -13 -10 -13 -15 0 -6 4 -7 10 -4 5 3 15 -5 21 -19 7 -14 16 -23
20 -20 5 3 9 0 9 -7 0 -6 10 -20 21 -30 14 -12 19 -25 15 -35 -5 -13 -4 -14 7
-6 10 8 16 6 26 -10 7 -11 8 -17 2 -14 -7 4 -8 1 -5 -8 3 -9 11 -14 17 -13 6
1 12 -4 13 -10 1 -7 2 -17 3 -23 0 -5 9 -10 19 -10 14 0 15 -2 2 -10 -13 -8
-13 -10 1 -10 9 0 20 -7 23 -16 3 -8 2 -12 -4 -9 -18 11 -11 -3 15 -31 19 -21
22 -29 13 -36 -9 -5 -8 -8 6 -8 12 0 16 -5 12 -16 -3 -8 -2 -12 4 -9 9 6 14
-8 11 -27 0 -5 3 -8 8 -8 14 0 20 -37 7 -50 -8 -8 -7 -10 7 -5 13 6 17 2 17
-15 0 -14 4 -19 13 -14 8 5 8 2 -2 -9 -12 -15 -9 -21 10 -19 3 1 4 -14 3 -33
-2 -18 3 -38 10 -44 7 -6 11 -24 10 -41 -1 -19 2 -28 9 -23 6 4 8 0 4 -10 -3
-10 -3 -17 2 -17 5 0 7 -14 5 -31 -3 -21 0 -28 9 -24 6 4 3 -1 -7 -9 -19 -15
-11 -22 19 -16 5 1 1 -9 -10 -21 -11 -12 -14 -19 -7 -15 6 4 12 3 12 -1 0 -5
-6 -15 -12 -22 -10 -11 -10 -13 0 -7 9 6 12 -20 12 -113 0 -86 -3 -121 -12
-124 -10 -4 -9 -6 1 -6 11 -1 11 -4 0 -18 -10 -11 -10 -14 -1 -9 16 9 16 -6 0
-22 -10 -10 -10 -15 2 -22 13 -9 13 -10 0 -10 -13 0 -13 -1 0 -10 11 -7 11
-10 2 -10 -7 0 -12 -6 -11 -12 4 -33 -2 -99 -8 -95 -5 3 -9 -6 -9 -19 -1 -15
2 -21 10 -17 6 4 5 -1 -3 -10 -7 -9 -11 -26 -8 -37 3 -11 0 -20 -6 -20 -6 0
-7 -3 -4 -7 4 -3 1 -13 -6 -21 -10 -13 -9 -14 3 -7 12 7 13 6 4 -6 -6 -8 -11
-26 -10 -42 1 -18 -3 -27 -14 -28 -10 0 -11 -2 -2 -6 6 -2 9 -10 5 -16 -8 -13
-9 -18 -11 -55 -1 -13 -6 -21 -11 -18 -10 7 -9 -13 2 -31 4 -6 3 -14 -3 -18
-6 -4 -8 -11 -5 -16 4 -5 0 -9 -7 -9 -11 0 -10 -2 0 -9 11 -6 10 -10 -4 -15
-16 -6 -16 -8 -4 -16 11 -7 12 -10 2 -10 -7 0 -11 -4 -8 -8 2 -4 1 -14 -4 -22
-5 -9 -5 -19 1 -26 8 -9 4 -11 -13 -7 -13 3 -19 1 -13 -4 13 -10 13 -58 1 -70
-5 -5 -6 -2 -1 6 5 9 4 12 -2 8 -6 -4 -9 -20 -7 -37 2 -17 0 -29 -4 -26 -5 3
-8 -7 -8 -22 1 -18 -4 -26 -13 -24 -11 2 -12 0 -3 -11 9 -10 9 -17 -1 -27 -9
-10 -9 -11 1 -6 6 4 12 2 12 -3 0 -6 -5 -11 -11 -11 -5 0 -7 -5 -4 -10 3 -6 2
-10 -3 -10 -5 0 -9 -7 -9 -15 0 -8 4 -15 9 -15 5 0 6 -5 3 -10 -4 -6 -11 -7
-17 -4 -8 5 -9 1 -5 -11 4 -9 2 -25 -5 -33 -8 -10 -9 -13 -1 -9 7 5 9 0 6 -13
-3 -11 -9 -17 -14 -14 -12 7 -11 -3 2 -28 8 -15 8 -19 0 -14 -11 7 -15 -5 -11
-38 1 -12 -3 -16 -10 -11 -9 6 -9 2 -1 -13 8 -15 8 -23 -1 -28 -7 -5 -8 -3 -3
6 5 9 4 11 -4 6 -8 -5 -9 -12 -2 -20 6 -7 6 -17 1 -26 -5 -9 -5 -19 2 -27 8
-10 4 -15 -13 -22 -13 -5 -18 -10 -11 -10 6 -1 12 -7 12 -15 0 -8 -6 -17 -12
-19 -10 -4 -10 -6 0 -6 10 -1 10 -6 1 -22 -6 -13 -7 -19 -1 -15 6 3 12 0 15
-6 3 -10 7 -10 20 1 13 10 17 10 17 1 0 -9 4 -9 17 1 10 8 14 9 10 2 -8 -13
30 -12 52 2 10 5 12 4 7 -3 -9 -16 7 -15 22 0 9 9 12 9 12 -1 0 -11 3 -11 17
0 10 8 14 9 10 2 -8 -13 30 -12 52 2 10 5 12 4 7 -3 -9 -16 7 -15 22 0 9 9 12
9 12 -1 0 -11 3 -11 17 0 11 10 14 10 9 2 -8 -15 3 -17 24 -3 9 5 19 5 27 -2
9 -7 18 -7 30 3 11 10 14 10 9 2 -4 -7 -3 -13 3 -13 5 0 12 6 14 13 4 9 6 8 6
-2 1 -11 4 -11 16 -1 8 7 15 17 15 22 0 15 27 38 35 30 5 -4 5 -1 1 6 -6 11
-11 11 -24 0 -12 -8 -11 -5 3 12 11 14 24 28 29 31 4 4 3 10 -3 13 -6 4 -9 12
-5 17 3 5 10 7 15 3 6 -3 8 5 5 21 -4 19 -1 25 7 22 7 -3 14 3 14 14 1 10 -4
19 -10 19 -7 0 -6 4 3 9 8 6 17 8 21 6 3 -3 4 7 1 20 -2 14 1 32 8 40 6 8 9
19 5 25 -3 5 -1 10 5 10 6 0 9 4 5 9 -3 5 0 13 6 17 8 4 7 9 -2 15 -11 7 -10
9 4 9 13 0 16 6 13 26 -4 23 -3 24 11 12 15 -12 15 -11 4 10 -8 15 -8 22 -1
22 6 0 8 5 5 10 -3 6 0 10 7 10 10 0 9 3 -2 10 -12 8 -12 10 2 15 11 4 15 15
12 30 -2 13 0 27 6 30 5 3 10 17 10 31 0 13 6 24 13 24 8 0 7 4 -3 10 -10 6
-11 10 -2 10 6 0 12 9 12 19 0 11 5 23 11 26 5 4 8 12 6 18 -2 7 0 20 5 29 6
13 5 18 -4 18 -6 0 -3 7 8 16 10 8 12 13 4 9 -13 -6 -13 -5 0 7 9 7 14 21 12
32 -2 10 1 23 7 29 7 7 7 16 0 30 -9 15 -8 18 1 12 10 -6 12 -1 8 19 -4 19 -1
26 11 26 13 0 13 2 2 9 -7 5 -10 14 -7 20 4 6 1 11 -6 12 -7 0 -4 4 7 9 11 5
15 9 8 9 -6 1 -10 14 -9 31 1 17 -3 30 -8 31 -6 0 -2 4 9 9 11 5 15 9 8 9 -6
1 -10 14 -9 31 1 17 -3 30 -8 31 -6 0 -2 4 9 9 11 5 15 9 8 9 -6 1 -10 14 -9
31 1 17 -3 30 -8 31 -6 0 -2 4 9 9 11 5 15 9 8 9 -6 1 -10 14 -9 31 1 17 -3
30 -8 31 -6 0 -2 4 9 9 11 5 15 9 8 9 -6 1 -10 14 -9 31 1 17 -3 30 -8 31 -6
0 -2 4 9 9 11 5 15 9 8 9 -6 1 -10 14 -9 31 1 17 -3 30 -8 31 -6 0 -2 4 9 9
11 5 15 9 8 9 -6 1 -10 14 -9 31 1 17 -3 30 -8 31 -6 0 -2 4 9 9 11 5 15 9 9
9 -6 1 -10 13 -10 28 1 16 -3 34 -9 42 -8 11 -6 13 5 9 11 -4 16 0 16 13 0 14
-3 15 -13 7 -11 -8 -12 -7 -6 8 3 10 11 22 17 26 8 5 8 8 0 8 -7 0 -15 7 -18
16 -4 11 -2 15 8 11 12 -5 12 -2 1 20 -8 16 -10 34 -6 47 5 11 6 27 3 35 -3 9
0 11 9 6 11 -6 12 -5 2 6 -15 15 -18 33 -5 25 5 -3 9 1 9 9 0 8 -5 15 -10 15
-5 0 -3 8 4 17 10 11 10 14 2 9 -7 -4 -13 -2 -13 3 0 6 3 11 8 11 4 0 7 18 7
39 0 22 -3 37 -7 35 -5 -3 -8 -1 -8 5 0 5 5 13 10 16 14 9 2 27 -13 19 -7 -3
-3 2 7 10 15 12 16 16 5 16 -9 0 -10 3 -3 8 13 8 13 61 0 81 -6 9 -5 12 1 8 6
-4 11 4 11 18 0 14 -6 25 -12 26 -6 0 -2 4 9 9 12 5 14 9 6 9 -11 1 -10 5 5
17 10 8 14 13 8 10 -7 -3 -14 1 -17 8 -3 8 -1 17 6 19 9 3 8 9 -3 22 -8 10
-10 16 -3 12 17 -10 28 13 12 24 -9 6 -10 12 -4 17 15 11 17 32 4 48 -9 11 -8
15 4 20 9 3 13 12 10 20 -3 8 1 14 8 14 9 0 10 3 4 8 -12 9 -16 44 -4 36 5 -3
7 9 5 25 -2 17 1 28 6 25 5 -3 8 0 7 7 -1 8 1 22 6 32 4 9 5 26 2 37 -3 11 -2
18 3 15 4 -3 11 2 14 11 4 10 2 13 -7 8 -6 -4 -5 1 4 12 9 10 15 30 13 43 -3
17 0 22 10 18 11 -4 13 1 10 20 -4 19 -1 24 9 20 7 -3 14 1 14 9 0 7 -5 11
-11 8 -6 -3 -4 0 5 8 9 7 15 21 13 31 -1 9 2 14 7 11 5 -3 14 8 20 25 6 17 15
31 21 31 5 0 6 5 2 12 -5 8 -2 9 11 4 16 -6 16 -4 4 11 -7 10 -10 15 -5 11 8
-6 36 14 36 26 0 10 68 76 79 76 7 0 10 4 7 9 -3 5 4 11 15 14 12 3 18 10 15
16 -4 6 2 8 14 6 11 -2 18 0 15 6 -4 5 1 9 10 9 10 0 13 5 9 12 -5 7 -2 9 9 5
9 -3 18 1 21 10 4 8 13 13 20 10 8 -3 17 1 20 10 4 10 14 13 27 10 15 -4 18
-2 10 7 -8 10 -4 12 19 11 16 -1 27 2 24 7 -3 4 0 8 6 8 6 0 8 5 4 13 -5 8 -3
8 9 -2 14 -11 18 -11 23 3 4 10 13 15 20 12 8 -3 14 -1 14 4 0 6 6 10 13 10
32 0 87 22 81 32 -5 7 -2 8 7 2 20 -12 40 -14 33 -2 -3 5 0 9 7 7 28 -3 39 2
40 19 0 9 3 12 5 5 4 -9 13 -9 31 -2 15 5 32 8 39 5 8 -3 11 0 8 9 -4 10 2 13
25 10 23 -3 30 -1 24 8 -4 7 0 6 10 -2 10 -8 20 -11 24 -7 3 3 0 6 -8 6 -11 0
-11 2 -1 9 8 4 24 7 38 5 17 -1 24 3 25 14 0 11 2 13 6 4 4 -10 8 -10 21 0 13
11 14 11 7 -2 -5 -9 0 -8 14 4 17 16 24 17 34 7 9 -10 8 -11 -8 -6 -16 5 -17
5 -5 -3 15 -12 34 -6 25 8 -8 13 22 19 35 7 10 -9 12 -8 7 6 -6 15 -4 16 13 7
11 -6 20 -7 20 -2 0 5 10 9 23 9 23 0 50 8 81 25 13 7 21 6 26 -2 5 -9 9 -8
12 2 4 8 19 13 42 12 22 -1 33 2 30 8 -4 6 2 7 16 3 17 -6 21 -4 14 6 -6 12
-5 12 9 0 13 -11 17 -11 17 -1 0 8 3 10 7 7 3 -4 13 -1 21 6 13 10 14 9 7 -3
-7 -12 -6 -13 6 -3 12 10 18 10 28 0 10 -9 12 -9 9 3 -2 9 3 14 11 12 8 -2 18
3 22 10 7 10 9 10 9 1 0 -7 5 -13 11 -13 5 0 7 5 4 10 -5 8 44 15 102 13 7 0
11 4 10 11 -1 6 9 9 27 8 21 -3 26 -1 20 10 -6 10 -5 11 7 1 11 -9 19 -9 26
-2 6 6 24 11 41 11 17 1 29 5 26 10 -3 4 15 8 40 8 25 0 46 5 46 10 0 6 5 10
11 10 5 0 7 -6 3 -12 -6 -9 -3 -9 9 1 9 7 23 11 31 8 8 -3 17 1 20 9 3 8 11
14 18 14 9 0 8 -3 -2 -10 -9 -6 -10 -10 -3 -10 6 0 15 5 18 10 3 6 11 10 16
10 6 0 7 -5 4 -10 -4 -6 8 -2 27 8 18 10 51 19 73 21 22 1 42 7 46 12 3 6 23
11 43 11 20 0 33 4 30 9 -3 5 -1 9 5 9 5 0 12 -6 14 -12 4 -10 6 -10 6 0 1 6
13 12 27 12 17 0 23 4 18 13 -6 9 -4 9 8 -1 12 -9 18 -10 23 -2 4 6 13 9 21 6
8 -3 14 -1 14 4 0 6 5 10 11 10 5 0 7 -6 4 -12 -4 -7 1 -4 9 6 12 15 16 16 16
5 1 -10 3 -9 11 4 5 9 15 17 22 17 7 0 6 -4 -3 -10 -12 -8 -10 -10 8 -10 13 0
20 4 17 10 -6 9 8 15 29 11 5 -1 17 6 27 15 18 16 20 16 35 -2 8 -10 13 -14
10 -9 -6 14 31 38 39 25 3 -6 12 -10 18 -10 8 0 8 3 -1 9 -11 7 -11 9 2 14 9
4 16 1 16 -5 0 -7 4 -7 13 1 8 6 17 8 20 4 4 -3 7 -2 7 3 0 5 15 10 33 11 67
6 76 7 72 13 -3 4 9 7 25 8 16 0 35 4 42 8 7 5 22 8 33 9 66 4 76 6 71 13 -2
4 10 8 27 8 20 0 31 5 30 12 -2 7 4 12 13 12 8 0 13 -4 10 -8 -3 -5 1 -9 9 -9
8 0 13 5 12 11 -1 6 4 10 11 9 6 -2 12 5 12 15 0 14 2 15 10 2 8 -13 10 -13
10 2 0 9 8 19 18 21 10 3 5 5 -12 6 -19 1 -26 5 -23 14 4 10 -3 12 -24 9 -17
-3 -29 0 -29 7 0 6 -16 11 -35 11 -19 0 -35 5 -35 10 0 6 -11 10 -23 10 -15 0
-28 9 -35 23 -6 12 -11 16 -11 10 -1 -7 -8 -13 -17 -13 -9 0 -12 5 -8 13 5 7
0 6 -11 -3 -11 -9 -16 -10 -11 -2 6 11 -11 17 -36 13 -5 0 -8 4 -8 10 0 5 -4
8 -9 5 -14 -9 -42 5 -35 16 4 6 -4 5 -16 -2 -18 -9 -21 -9 -15 0 6 9 0 11 -23
8 -27 -4 -30 -2 -20 10 10 12 9 14 -7 10 -11 -2 -26 3 -33 12 -8 8 -11 9 -7 3
8 -17 -6 -16 -41 1 -15 8 -31 13 -36 10 -4 -3 -8 2 -8 10 0 8 -4 18 -10 21 -6
4 -7 -1 -3 -11 5 -13 3 -15 -8 -8 -8 5 -17 9 -21 9 -3 0 -10 4 -15 9 -5 5 -2
6 6 1 9 -5 12 -4 8 2 -3 5 -20 8 -37 5 -16 -2 -30 0 -30 5 0 6 -11 9 -25 8
-14 -2 -27 1 -31 6 -3 5 -9 7 -14 4 -5 -3 -12 0 -17 7 -4 7 -17 14 -28 16 -51
6 -62 9 -73 16 -7 4 -10 11 -7 15 2 5 -7 6 -22 3 -16 -3 -24 -1 -20 5 4 6 -5
9 -23 7 -20 -2 -33 2 -39 14 -7 11 -11 12 -11 4 0 -7 -5 -10 -10 -7 -6 4 -7
11 -4 17 5 7 2 8 -7 2 -24 -14 -38 -13 -32 3 5 13 3 14 -12 6 -12 -7 -25 -6
-43 3 -14 7 -30 10 -35 7 -6 -4 -8 1 -3 12 5 15 4 16 -8 6 -10 -8 -16 -9 -21
-1 -3 6 -11 8 -16 5 -5 -4 -9 0 -9 7 0 9 -3 9 -10 -2 -8 -12 -10 -12 -10 5 0
15 -3 16 -9 7 -7 -11 -11 -11 -24 2 -11 12 -17 13 -20 3 -4 -9 -6 -9 -6 1 -1
7 -5 10 -11 7 -5 -3 -10 -2 -10 3 0 6 -9 8 -20 5 -11 -3 -20 -1 -20 4 0 5 -12
10 -26 11 -14 1 -31 5 -37 9 -6 4 -24 7 -39 8 -14 1 -33 7 -41 13 -10 9 -17 9
-27 -1 -10 -9 -11 -9 -6 1 4 6 3 12 -1 12 -5 0 -15 -6 -22 -12 -10 -11 -11 -9
-5 6 5 14 4 17 -5 12 -6 -4 -19 -2 -27 5 -13 10 -17 10 -24 0 -6 -10 -9 -10
-12 -1 -2 8 -35 12 -103 13 -58 0 -103 5 -107 11 -5 7 -8 7 -8 -2 0 -8 -12
-12 -33 -10 -18 1 -38 -2 -45 -6 -7 -4 -12 -2 -12 5 0 7 -6 5 -13 -6 -11 -14
-16 -15 -22 -5 -6 10 -9 9 -16 -1 -6 -10 -9 -11 -9 -1 0 6 -5 12 -11 12 -5 0
-7 -6 -3 -12 6 -10 4 -10 -8 0 -12 9 -18 10 -23 2 -5 -8 -11 -7 -23 2 -12 10
-14 10 -8 1 5 -9 0 -13 -16 -13 -13 0 -29 -5 -36 -12 -9 -9 -12 -9 -12 2 0 11
-3 11 -12 2 -7 -7 -24 -12 -38 -12 -14 0 -31 -5 -38 -12 -9 -9 -12 -8 -12 7 0
18 0 18 -13 0 -8 -10 -19 -15 -25 -11 -7 4 -12 2 -12 -3 0 -6 -5 -11 -11 -11
-5 0 -7 5 -3 11 3 6 -5 4 -18 -5 -14 -9 -33 -14 -42 -10 -12 5 -15 2 -10 -9 4
-12 1 -14 -15 -10 -12 3 -21 1 -21 -6 0 -9 -5 -9 -20 -1 -15 8 -20 8 -18 -1 3
-11 -18 -19 -54 -22 -10 -1 -18 -7 -18 -14 0 -7 -5 -13 -11 -13 -5 0 -7 6 -3
13 4 6 -2 3 -14 -7 -17 -14 -22 -16 -23 -5 0 8 -5 3 -10 -11 -7 -18 -12 -21
-18 -11 -6 10 -10 9 -15 -4 -4 -11 -13 -15 -26 -12 -11 3 -23 0 -27 -5 -4 -7
-1 -8 7 -3 9 6 11 4 6 -4 -5 -7 -14 -10 -22 -7 -8 3 -17 0 -20 -7 -2 -7 -14
-13 -25 -14 -12 -1 -27 -10 -33 -19 -8 -11 -18 -14 -27 -9 -8 5 -11 5 -7 1 10
-11 -14 -34 -29 -29 -7 3 -16 -2 -19 -11 -3 -9 -12 -16 -20 -16 -8 0 -14 -4
-14 -10 0 -5 -8 -6 -17 -3 -16 6 -16 5 -4 -10 12 -15 12 -17 -4 -11 -13 5 -16
4 -11 -5 4 -6 4 -11 -1 -10 -24 4 -43 -3 -43 -16 0 -9 -6 -12 -15 -9 -10 4
-15 0 -15 -12 0 -9 -3 -15 -6 -11 -7 7 -34 -17 -34 -31 0 -13 -29 -24 -42 -15
-7 3 -8 1 -4 -6 4 -6 0 -18 -8 -27 -12 -12 -16 -12 -17 -2 0 7 -4 3 -10 -10
-5 -14 -13 -20 -20 -16 -8 4 -9 3 -5 -4 4 -7 2 -12 -4 -12 -6 0 -8 -4 -5 -10
6 -10 -5 -13 -35 -11 -10 0 -11 -1 -2 -5 6 -3 12 -10 12 -15 0 -6 -4 -7 -10
-4 -9 6 -14 -8 -11 -28 0 -4 -2 -6 -6 -6 -20 3 -34 -2 -28 -11 3 -5 -2 -10
-12 -11 -11 0 -13 -3 -5 -6 8 -3 2 -14 -18 -33 -16 -15 -30 -31 -30 -35 0 -4
-9 -16 -20 -25 -12 -10 -19 -22 -18 -27 2 -4 -7 -19 -20 -33 -12 -13 -20 -30
-17 -38 2 -7 1 -11 -3 -8 -4 2 -16 -3 -27 -11 -15 -12 -16 -14 -3 -10 25 9 12
-18 -15 -31 -13 -6 -16 -11 -8 -11 12 -1 11 -4 -2 -13 -9 -7 -18 -23 -20 -36
-2 -13 -9 -27 -17 -32 -7 -4 -9 -13 -6 -19 4 -6 0 -11 -11 -11 -14 0 -15 -2
-5 -9 11 -6 10 -11 -3 -24 -8 -9 -16 -20 -16 -24 -1 -4 -6 -7 -12 -5 -6 2 -5
-4 3 -12 9 -12 9 -16 1 -16 -7 0 -9 -4 -6 -10 3 -5 1 -10 -6 -10 -7 0 -9 -3
-6 -7 4 -3 1 -13 -6 -21 -10 -13 -9 -14 3 -7 12 7 13 6 3 -7 -7 -8 -9 -19 -5
-23 4 -5 1 -5 -5 -1 -11 6 -17 -7 -12 -26 0 -2 -7 -21 -17 -43 -9 -22 -16 -41
-15 -42 5 -12 -2 -13 -14 -3 -12 10 -13 16 -4 26 9 11 8 14 -4 14 -10 0 -14 7
-10 23 4 18 3 19 -6 7 -8 -12 -11 -8 -11 18 0 17 -4 32 -10 32 -5 0 -10 9 -10
21 0 11 -4 18 -8 15 -4 -2 -9 5 -9 17 -1 12 -7 23 -13 25 -8 3 -7 8 1 18 9 11
8 15 -6 20 -13 5 -14 9 -3 15 10 7 9 9 -5 9 -9 0 -16 3 -16 8 4 25 -2 42 -13
36 -9 -5 -9 -2 1 9 10 13 10 17 1 17 -8 0 -11 9 -8 25 4 20 3 23 -8 14 -10 -8
-12 -6 -9 10 2 12 -1 21 -8 21 -7 0 -6 4 3 10 12 7 12 10 1 10 -8 0 -11 6 -7
16 3 8 2 12 -4 9 -6 -3 -10 5 -10 19 0 14 -4 26 -10 26 -5 0 -6 7 -3 17 4 10
2 14 -4 10 -6 -4 -8 3 -5 20 3 18 1 24 -6 19 -8 -5 -10 -1 -6 9 4 8 0 23 -7
32 -12 14 -12 16 1 9 8 -4 6 0 -4 8 -15 12 -16 16 -5 16 9 0 10 3 3 8 -6 4
-10 17 -9 29 1 12 -3 20 -8 16 -5 -3 -7 6 -5 19 1 14 -4 33 -12 44 -13 16 -13
17 0 9 12 -7 13 -6 3 7 -7 8 -10 18 -6 21 3 4 1 7 -5 7 -6 0 -11 8 -11 18 -1
15 -8 79 -10 92 -1 3 -6 -2 -12 -10 -9 -12 -10 -12 -5 3 3 10 1 28 -5 39 -6
11 -7 18 -2 15 4 -3 8 8 8 23 0 21 -3 26 -12 19 -8 -8 -10 -4 -6 12 5 17 3 20
-8 14 -11 -7 -12 -6 -4 6 9 13 10 21 6 54 -1 6 -6 3 -11 -5 -6 -9 -10 -10 -10
-3 0 6 8 20 18 29 16 17 16 18 -1 11 -14 -5 -16 -2 -13 18 2 13 -1 26 -7 28
-9 3 -8 9 3 22 13 17 13 18 -1 13 -13 -5 -16 -2 -11 14 4 16 2 19 -8 13 -9 -6
-11 -4 -5 6 13 19 14 49 2 49 -5 0 -3 8 4 17 10 11 10 14 2 9 -12 -6 -18 11
-14 37 0 4 -5 7 -12 7 -9 0 -9 2 1 9 8 4 14 12 14 16 0 4 -6 12 -14 16 -11 7
-10 11 2 19 10 6 11 10 3 10 -7 0 -13 11 -13 24 0 14 -5 28 -10 31 -8 5 -7 11
1 21 8 10 8 14 0 14 -6 0 -11 5 -11 11 0 5 6 7 13 3 6 -4 3 3 -8 16 l-20 23
20 -6 c16 -6 16 -3 -5 14 -14 11 -19 18 -12 14 15 -8 17 21 2 30 -8 5 -7 11 1
21 8 10 8 14 0 14 -6 0 -11 7 -11 16 0 9 5 13 13 9 6 -4 5 -1 -3 7 -9 8 -14
26 -12 46 2 18 -1 39 -7 46 -7 9 -7 16 1 24 9 9 9 12 -3 12 -12 0 -12 2 1 10
10 6 11 10 3 10 -9 0 -12 19 -12 61 1 39 -3 64 -11 69 -9 6 -9 9 1 13 12 5 12
7 0 15 -11 8 -11 10 0 15 10 4 10 6 2 6 -7 1 -13 8 -13 17 0 9 5 12 13 8 8 -6
8 -3 -2 9 -7 9 -11 23 -8 31 3 7 0 19 -6 25 -7 7 -7 11 -1 11 10 0 8 50 -3 80
-9 25 -10 49 -1 44 4 -3 8 0 8 5 0 6 -4 11 -10 11 -5 0 -10 5 -10 11 0 5 4 8
8 5 5 -3 9 1 9 9 0 8 -4 12 -8 9 -4 -2 -7 16 -6 41 0 24 -2 47 -5 51 -4 3 -3
17 2 30 7 18 5 26 -8 33 -10 6 -12 11 -4 11 6 0 12 12 12 28 0 15 -6 34 -12
41 -10 11 -10 13 0 7 13 -8 16 3 6 28 -3 9 -11 13 -17 9 -6 -3 -7 -1 -3 6 4 6
12 9 17 6 5 -4 9 -1 9 4 0 6 -6 11 -12 11 -9 0 -8 4 2 10 13 9 13 10 0 10 -13
0 -13 1 0 10 13 8 12 10 -3 10 -10 0 -15 5 -12 10 3 6 1 10 -4 10 -6 0 -11 -7
-11 -16z m2605 -2204 c-3 -5 -12 -10 -18 -10 -7 0 -6 4 3 10 19 12 23 12 15 0z
m-2801 -108 c3 -5 -1 -9 -9 -9 -8 0 -12 4 -9 9 3 4 7 8 9 8 2 0 6 -4 9 -8z"/>
<path d="M7065 4650 c-3 -5 -1 -10 4 -10 6 0 11 5 11 10 0 6 -2 10 -4 10 -3 0
-8 -4 -11 -10z"/>
<path d="M1250 4306 c0 -2 7 -7 16 -10 8 -3 12 -2 9 4 -6 10 -25 14 -25 6z"/>
<path d="M3835 3921 c-3 -5 -2 -12 3 -15 5 -3 9 1 9 9 0 17 -3 19 -12 6z"/>
</g>
</svg>
