<?xml version="1.0" encoding="utf-8"?>
<!-- Generator: Adobe Illustrator 14.0.0, SVG Export Plug-In . SVG Version: 6.00 Build 43363)  -->
<!DOCTYPE svg PUBLIC "-//W3C//DTD SVG 1.1//EN" "http://www.w3.org/Graphics/SVG/1.1/DTD/svg11.dtd">
<svg version="1.1" id="orig_xA0_Bild_1_" xmlns="http://www.w3.org/2000/svg" xmlns:xlink="http://www.w3.org/1999/xlink" x="0px"
	 y="0px" width="168px" height="125.52px" viewBox="0 0 168 125.52" enable-background="new 0 0 168 125.52" xml:space="preserve">
<g>
	<g>
		<path fill-rule="evenodd" clip-rule="evenodd" d="M77.52,0c0.24,0,0.48,0,0.72,0c0.786,22.334,4.039,42.201,11.279,58.08
			c2.724-8.701,7.185-15.544,14.16-20.64c6.443-4.707,16.125-8.737,26.641-8.16c6.605,0.363,13.279,3.127,19.439,5.04
			c6.305,1.958,12.274,4.367,18.24,6c0,0.24,0,0.48,0,0.72c-4.9,2.291-10.468,2.961-15.84,4.32
			c-10.55,2.668-22.083,4.825-32.641,7.44c-5.138,1.273-10.356,2.85-14.159,5.76c-11.273,8.626-5.784,28.047-7.681,46.56
			c-0.763,7.445-4.318,13.527-6.239,20.399c-3.44,0-6.881,0-10.32,0c1.086-13.219,6.902-21.268,6-35.039
			c-1.262-19.258-19.104-29.913-36.24-34.8c-6.503-1.855-13.121-2.242-20.64-2.88C19.271,51.869,6.884,51.071,0,45.36
			c0-0.32,0-0.64,0-0.96c5.764-1.805,12.116-2.173,18.48-2.88c6.725-0.747,13.834-1.598,20.4-1.2c7.367,0.447,14.561,2.34,21.12,4.8
			c10.426,3.91,18.757,8.217,23.76,16.32c-2.216-6.817-8.455-10.446-12-16.56c-3.647-6.291-4.915-15.071-3.6-24.48
			C69.329,12.041,73.891,5.616,77.52,0z"/>
	</g>
</g>
</svg>
